<svg xmlns="http://www.w3.org/2000/svg" xmlns:xlink="http://www.w3.org/1999/xlink" version="1.1" data-diagram-type="ACTIVITY" style="width:534px;height:1029px;background:#FFFFFF;" width="534px" height="1029px" viewBox="0 0 534 1029" zoomAndPan="magnify" preserveAspectRatio="none" contentStyleType="text/css"><?plantuml 1.2026.8?><defs/><g font-family="sans-serif" lengthAdjust="spacing"><g class="title" data-source-line="2"><text x="50.891" y="33.923" fill="#1F2328" font-size="15" textLength="430.671" font-weight="700" font-family="Helvetica">Single shot: retrieve once, generate once, no tools</text></g><ellipse cx="256.707" cy="63.461" rx="10" ry="10" fill="#1F2328" style="stroke:#222;stroke-width:1;"/><rect x="176.5" y="93.461" width="160.414" height="33.969" fill="#F6F8FA" style="stroke:#57606A;stroke-width:0.5;" rx="6" ry="6"/><text x="186.5" y="114.6" fill="#1F2328" font-size="12" textLength="31.629" font-family="Helvetica">POST</text><text x="218.129" y="114.6" fill="#1F2328" font-size="12" font-family="Helvetica"> </text><text x="221.943" y="114.6" fill="#1F2328" font-size="12" textLength="104.971" font-family="Helvetica">/v1/chat/question</text><rect x="142.164" y="147.43" width="229.086" height="33.969" fill="#F6F8FA" style="stroke:#57606A;stroke-width:0.5;" rx="6" ry="6"/><text x="152.164" y="168.568" fill="#1F2328" font-size="12" textLength="41.889" font-family="Helvetica">Embed</text><text x="194.053" y="168.568" fill="#1F2328" font-size="12" font-family="Helvetica"> </text><text x="197.867" y="168.568" fill="#1F2328" font-size="12" textLength="19.693" font-family="Helvetica">the</text><text x="217.561" y="168.568" fill="#1F2328" font-size="12" font-family="Helvetica"> </text><text x="221.375" y="168.568" fill="#1F2328" font-size="12" textLength="34.641" font-family="Helvetica">query</text><text x="256.016" y="168.568" fill="#1F2328" font-size="12" font-family="Helvetica"> </text><text x="259.83" y="168.568" fill="#1F2328" font-size="12" textLength="54.768" font-family="Helvetica">(bge-m3,</text><text x="314.598" y="168.568" fill="#1F2328" font-size="12" font-family="Helvetica"> </text><text x="318.412" y="168.568" fill="#1F2328" font-size="12" textLength="42.838" font-family="Helvetica">1024d)</text><rect x="16" y="191.398" width="481.414" height="216.172" fill="none" style="stroke:#AFB8C1;stroke-width:1.5;" rx="6" ry="6"/><path d="M247.525,191.398 L247.525,200.695 L237.525,210.695 L16,210.695" style="stroke:#AFB8C1;stroke-width:1.5;" fill="none"/><text x="19" y="205.394" fill="#57606A" font-size="14" textLength="221.525" font-family="Helvetica">Hybrid retrieval, one SQL query</text><rect x="26" y="227.695" width="461.414" height="6" fill="#555" style="stroke:#555;stroke-width:1;" rx="2.5" ry="2.5"/><rect x="40" y="253.695" width="190.443" height="47.938" fill="#F6F8FA" style="stroke:#57606A;stroke-width:0.5;" rx="6" ry="6"/><text x="50" y="274.834" fill="#1F2328" font-size="12" textLength="38.063" font-family="Helvetica">vector</text><text x="88.063" y="274.834" fill="#1F2328" font-size="12" font-family="Helvetica"> </text><text x="91.877" y="274.834" fill="#1F2328" font-size="12" textLength="27.105" font-family="Helvetica">CTE,</text><text x="118.982" y="274.834" fill="#1F2328" font-size="12" font-family="Helvetica"> </text><text x="122.797" y="274.834" fill="#1F2328" font-size="12" textLength="32.971" font-family="Helvetica">top-N</text><text x="155.768" y="274.834" fill="#1F2328" font-size="12" font-family="Helvetica"> </text><text x="159.582" y="274.834" fill="#1F2328" font-size="12" textLength="14.719" font-family="Helvetica">by</text><text x="174.301" y="274.834" fill="#1F2328" font-size="12" font-family="Helvetica"> </text><text x="178.115" y="274.834" fill="#1F2328" font-size="12" textLength="42.328" font-family="Helvetica">cosine,</text><text x="50" y="288.803" fill="#1F2328" font-size="12" textLength="31.277" font-family="Helvetica">hnsw</text><text x="81.277" y="288.803" fill="#1F2328" font-size="12" font-family="Helvetica"> </text><text x="85.092" y="288.803" fill="#1F2328" font-size="12" textLength="12.059" font-family="Helvetica">at</text><text x="97.15" y="288.803" fill="#1F2328" font-size="12" font-family="Helvetica"> </text><text x="100.965" y="288.803" fill="#1F2328" font-size="12" textLength="19.693" font-family="Helvetica">the</text><text x="120.658" y="288.803" fill="#1F2328" font-size="12" font-family="Helvetica"> </text><text x="124.473" y="288.803" fill="#1F2328" font-size="12" textLength="51.346" font-family="Helvetica">resolved</text><text x="175.818" y="288.803" fill="#1F2328" font-size="12" font-family="Helvetica"> </text><text x="179.633" y="288.803" fill="#1F2328" font-size="12" textLength="34.928" font-family="Helvetica">depth</text><rect x="258.443" y="253.695" width="214.971" height="47.938" fill="#F6F8FA" style="stroke:#57606A;stroke-width:0.5;" rx="6" ry="6"/><text x="268.443" y="274.834" fill="#1F2328" font-size="12" textLength="51.141" font-family="Helvetica">keyword</text><text x="319.584" y="274.834" fill="#1F2328" font-size="12" font-family="Helvetica"> </text><text x="323.398" y="274.834" fill="#1F2328" font-size="12" textLength="27.105" font-family="Helvetica">CTE,</text><text x="350.504" y="274.834" fill="#1F2328" font-size="12" font-family="Helvetica"> </text><text x="354.318" y="274.834" fill="#1F2328" font-size="12" textLength="21.85" font-family="Helvetica">FTS</text><text x="376.168" y="274.834" fill="#1F2328" font-size="12" font-family="Helvetica"> </text><text x="379.982" y="274.834" fill="#1F2328" font-size="12" textLength="19.934" font-family="Helvetica">per</text><text x="399.916" y="274.834" fill="#1F2328" font-size="12" font-family="Helvetica"> </text><text x="403.73" y="274.834" fill="#1F2328" font-size="12" textLength="59.684" font-family="Helvetica">language,</text><text x="268.443" y="288.803" fill="#1F2328" font-size="12" textLength="66.551" font-family="Helvetica">query_lang</text><text x="334.994" y="288.803" fill="#1F2328" font-size="12" font-family="Helvetica"> </text><text x="338.809" y="288.803" fill="#1F2328" font-size="12" textLength="14.719" font-family="Helvetica">by</text><text x="353.527" y="288.803" fill="#1F2328" font-size="12" font-family="Helvetica"> </text><text x="357.342" y="288.803" fill="#1F2328" font-size="12" textLength="49.02" font-family="Helvetica">function</text><text x="406.361" y="288.803" fill="#1F2328" font-size="12" font-family="Helvetica"> </text><text x="410.176" y="288.803" fill="#1F2328" font-size="12" textLength="35.959" font-family="Helvetica">words</text><rect x="26" y="321.633" width="461.414" height="6" fill="#555" style="stroke:#555;stroke-width:1;" rx="2.5" ry="2.5"/><rect x="154.624" y="347.633" width="204.166" height="47.938" fill="#F6F8FA" style="stroke:#57606A;stroke-width:0.5;" rx="6" ry="6"/><text x="164.624" y="368.771" fill="#1F2328" font-size="12" textLength="23.578" font-family="Helvetica">RRF</text><text x="188.202" y="368.771" fill="#1F2328" font-size="12" font-family="Helvetica"> </text><text x="192.017" y="368.771" fill="#1F2328" font-size="12" textLength="42.82" font-family="Helvetica">merge,</text><text x="234.837" y="368.771" fill="#1F2328" font-size="12" font-family="Helvetica"> </text><text x="238.651" y="368.771" fill="#1F2328" font-size="12" textLength="31.629" font-family="Helvetica">1/(60</text><text x="270.28" y="368.771" fill="#1F2328" font-size="12" font-family="Helvetica"> </text><text x="274.095" y="368.771" fill="#1F2328" font-size="12" font-family="Helvetica">+</text><text x="284.149" y="368.771" fill="#1F2328" font-size="12" font-family="Helvetica"> </text><text x="287.964" y="368.771" fill="#1F2328" font-size="12" textLength="35.338" font-family="Helvetica">rank),</text><text x="323.302" y="368.771" fill="#1F2328" font-size="12" font-family="Helvetica"> </text><text x="327.116" y="368.771" fill="#1F2328" font-size="12" textLength="21.674" font-family="Helvetica">ties</text><text x="164.624" y="382.74" fill="#1F2328" font-size="12" textLength="41.83" font-family="Helvetica">broken</text><text x="206.454" y="382.74" fill="#1F2328" font-size="12" font-family="Helvetica"> </text><text x="210.269" y="382.74" fill="#1F2328" font-size="12" textLength="14.719" font-family="Helvetica">by</text><text x="224.987" y="382.74" fill="#1F2328" font-size="12" font-family="Helvetica"> </text><text x="228.802" y="382.74" fill="#1F2328" font-size="12" textLength="10.951" font-family="Helvetica">id</text><rect x="148.812" y="427.57" width="215.791" height="47.938" fill="#F6F8FA" style="stroke:#57606A;stroke-width:0.5;" rx="6" ry="6"/><text x="158.812" y="448.709" fill="#1F2328" font-size="12" textLength="52.471" font-family="Helvetica">Distance</text><text x="211.282" y="448.709" fill="#1F2328" font-size="12" font-family="Helvetica"> </text><text x="215.097" y="448.709" fill="#1F2328" font-size="12" textLength="60.592" font-family="Helvetica">threshold,</text><text x="275.688" y="448.709" fill="#1F2328" font-size="12" font-family="Helvetica"> </text><text x="279.503" y="448.709" fill="#1F2328" font-size="12" textLength="19.693" font-family="Helvetica">the</text><text x="299.196" y="448.709" fill="#1F2328" font-size="12" font-family="Helvetica"> </text><text x="303.011" y="448.709" fill="#1F2328" font-size="12" textLength="51.592" font-family="Helvetica">absolute</text><text x="158.812" y="462.678" fill="#1F2328" font-size="12" textLength="41.051" font-family="Helvetica">quality</text><text x="199.862" y="462.678" fill="#1F2328" font-size="12" font-family="Helvetica"> </text><text x="203.677" y="462.678" fill="#1F2328" font-size="12" textLength="27.059" font-family="Helvetica">gate</text><polygon points="218.186,495.508,295.229,495.508,307.229,507.508,295.229,519.508,218.186,519.508,206.186,507.508,218.186,495.508" fill="#FFF" style="stroke:#57606A;stroke-width:0.5;stroke-linejoin:miter;stroke-miterlimit:10;"/><text x="218.186" y="511.316" fill="#1F2328" font-size="11" textLength="20.222" font-family="Helvetica">any</text><text x="238.408" y="511.316" fill="#1F2328" font-size="11" font-family="Helvetica"> </text><text x="241.904" y="511.316" fill="#1F2328" font-size="11" textLength="25.98" font-family="Helvetica">rows</text><text x="267.884" y="511.316" fill="#1F2328" font-size="11" font-family="Helvetica"> </text><text x="271.381" y="511.316" fill="#1F2328" font-size="11" textLength="23.848" font-family="Helvetica">left?</text><text x="192.484" y="504.914" fill="#424A53" font-size="11" textLength="13.702" font-family="Helvetica">no</text><text x="307.229" y="504.914" fill="#424A53" font-size="11" textLength="19.008" font-family="Helvetica">yes</text><rect x="30.856" y="529.508" width="213.605" height="47.938" fill="#F0FDFA" style="stroke:#57606A;stroke-width:0.5;" rx="6" ry="6"/><text x="40.856" y="550.646" fill="#1F2328" font-size="12" textLength="21.838" font-family="Helvetica">"No</text><text x="62.694" y="550.646" fill="#1F2328" font-size="12" font-family="Helvetica"> </text><text x="66.508" y="550.646" fill="#1F2328" font-size="12" textLength="49.799" font-family="Helvetica">relevant</text><text x="116.307" y="550.646" fill="#1F2328" font-size="12" font-family="Helvetica"> </text><text x="120.122" y="550.646" fill="#1F2328" font-size="12" textLength="66.797" font-family="Helvetica">documents</text><text x="186.918" y="550.646" fill="#1F2328" font-size="12" font-family="Helvetica"> </text><text x="190.733" y="550.646" fill="#1F2328" font-size="12" textLength="43.729" font-family="Helvetica">found."</text><text x="40.856" y="564.615" fill="#1F2328" font-size="12" textLength="15.814" font-family="Helvetica">An</text><text x="56.67" y="564.615" fill="#1F2328" font-size="12" font-family="Helvetica"> </text><text x="60.485" y="564.615" fill="#1F2328" font-size="12" textLength="40.893" font-family="Helvetica">honest</text><text x="101.377" y="564.615" fill="#1F2328" font-size="12" font-family="Helvetica"> </text><text x="105.192" y="564.615" fill="#1F2328" font-size="12" textLength="44.9" font-family="Helvetica">refusal,</text><text x="150.092" y="564.615" fill="#1F2328" font-size="12" font-family="Helvetica"> </text><text x="153.907" y="564.615" fill="#1F2328" font-size="12" textLength="14.947" font-family="Helvetica">no</text><text x="168.854" y="564.615" fill="#1F2328" font-size="12" font-family="Helvetica"> </text><text x="172.668" y="564.615" fill="#1F2328" font-size="12" textLength="23.725" font-family="Helvetica">LLM</text><text x="196.393" y="564.615" fill="#1F2328" font-size="12" font-family="Helvetica"> </text><text x="200.208" y="564.615" fill="#1F2328" font-size="12" textLength="20.619" font-family="Helvetica">call</text><rect x="280.156" y="577.91" width="191.199" height="61.906" fill="#F6F8FA" style="stroke:#57606A;stroke-width:0.5;" rx="6" ry="6"/><text x="290.156" y="599.049" fill="#1F2328" font-size="12" textLength="86.35" font-family="Helvetica">Cross-encoder</text><text x="376.505" y="599.049" fill="#1F2328" font-size="12" font-family="Helvetica"> </text><text x="380.32" y="599.049" fill="#1F2328" font-size="12" textLength="42.973" font-family="Helvetica">rerank,</text><text x="290.156" y="613.018" fill="#1F2328" font-size="12" textLength="124.957" font-family="Helvetica">bge-reranker-v2-m3,</text><text x="290.156" y="626.986" fill="#1F2328" font-size="12" textLength="15.27" font-family="Helvetica">20</text><text x="305.425" y="626.986" fill="#1F2328" font-size="12" font-family="Helvetica"> </text><text x="309.24" y="626.986" fill="#1F2328" font-size="12" textLength="65.818" font-family="Helvetica">candidates</text><text x="375.058" y="626.986" fill="#1F2328" font-size="12" font-family="Helvetica"> </text><text x="378.873" y="626.986" fill="#1F2328" font-size="12" textLength="32.379" font-family="Helvetica">down</text><text x="411.251" y="626.986" fill="#1F2328" font-size="12" font-family="Helvetica"> </text><text x="415.066" y="626.986" fill="#1F2328" font-size="12" textLength="12.047" font-family="Helvetica">to</text><text x="427.113" y="626.986" fill="#1F2328" font-size="12" font-family="Helvetica"> </text><text x="430.927" y="626.986" fill="#1F2328" font-size="12" textLength="19.664" font-family="Helvetica">top</text><text x="450.591" y="626.986" fill="#1F2328" font-size="12" font-family="Helvetica"> </text><text x="454.406" y="626.986" fill="#1F2328" font-size="12" font-family="Helvetica">k</text><polygon points="331.006,529.508,420.505,529.508,432.505,541.508,420.505,553.508,331.006,553.508,319.006,541.508,331.006,529.508" fill="#FFF" style="stroke:#57606A;stroke-width:0.5;stroke-linejoin:miter;stroke-miterlimit:10;"/><text x="379.755" y="563.718" fill="#424A53" font-size="11" textLength="22.505" font-family="Helvetica">yes,</text><text x="402.26" y="563.718" fill="#424A53" font-size="11" font-family="Helvetica"> </text><text x="405.757" y="563.718" fill="#424A53" font-size="11" textLength="40.708" font-family="Helvetica">per-run</text><text x="446.464" y="563.718" fill="#424A53" font-size="11" font-family="Helvetica"> </text><text x="449.961" y="563.718" fill="#424A53" font-size="11" textLength="45.858" font-family="Helvetica">override</text><text x="331.006" y="545.316" fill="#1F2328" font-size="11" textLength="35.895" font-family="Helvetica">rerank</text><text x="366.901" y="545.316" fill="#1F2328" font-size="11" font-family="Helvetica"> </text><text x="370.398" y="545.316" fill="#1F2328" font-size="11" textLength="50.107" font-family="Helvetica">enabled?</text><text x="432.505" y="538.914" fill="#424A53" font-size="11" textLength="17.198" font-family="Helvetica">no,</text><text x="449.703" y="538.914" fill="#424A53" font-size="11" font-family="Helvetica"> </text><text x="453.199" y="538.914" fill="#424A53" font-size="11" textLength="18.052" font-family="Helvetica">the</text><text x="471.252" y="538.914" fill="#424A53" font-size="11" font-family="Helvetica"> </text><text x="474.748" y="538.914" fill="#424A53" font-size="11" textLength="38.704" font-family="Helvetica">default</text><polygon points="375.755,659.816,387.755,671.816,375.755,683.816,363.755,671.816,375.755,659.816" fill="#FFF" style="stroke:#57606A;stroke-width:0.5;stroke-linejoin:miter;stroke-miterlimit:10;"/><rect x="275.881" y="703.816" width="199.748" height="47.938" fill="#F6F8FA" style="stroke:#57606A;stroke-width:0.5;" rx="6" ry="6"/><text x="285.881" y="724.955" fill="#1F2328" font-size="12" textLength="30.123" font-family="Helvetica">Build</text><text x="316.004" y="724.955" fill="#1F2328" font-size="12" font-family="Helvetica"> </text><text x="319.819" y="724.955" fill="#1F2328" font-size="12" textLength="19.693" font-family="Helvetica">the</text><text x="339.512" y="724.955" fill="#1F2328" font-size="12" font-family="Helvetica"> </text><text x="343.327" y="724.955" fill="#1F2328" font-size="12" textLength="49.482" font-family="Helvetica">context:</text><text x="392.809" y="724.955" fill="#1F2328" font-size="12" font-family="Helvetica"> </text><text x="396.624" y="724.955" fill="#1F2328" font-size="12" textLength="42.615" font-family="Helvetica">chunks</text><text x="439.239" y="724.955" fill="#1F2328" font-size="12" font-family="Helvetica"> </text><text x="443.053" y="724.955" fill="#1F2328" font-size="12" textLength="22.576" font-family="Helvetica">and</text><text x="285.881" y="738.924" fill="#1F2328" font-size="12" textLength="40.113" font-family="Helvetica">source</text><text x="325.995" y="738.924" fill="#1F2328" font-size="12" font-family="Helvetica"> </text><text x="329.809" y="738.924" fill="#1F2328" font-size="12" textLength="49.494" font-family="Helvetica">markers</text><rect x="264.461" y="771.754" width="222.588" height="33.969" fill="#F6F8FA" style="stroke:#57606A;stroke-width:0.5;" rx="6" ry="6"/><text x="274.461" y="792.893" fill="#1F2328" font-size="12" textLength="56.045" font-family="Helvetica">Generate</text><text x="330.506" y="792.893" fill="#1F2328" font-size="12" font-family="Helvetica"> </text><text x="334.321" y="792.893" fill="#1F2328" font-size="12" textLength="79.939" font-family="Helvetica">(llama3.1:8b,</text><text x="414.26" y="792.893" fill="#1F2328" font-size="12" font-family="Helvetica"> </text><text x="418.075" y="792.893" fill="#1F2328" font-size="12" textLength="31.395" font-family="Helvetica">temp</text><text x="449.469" y="792.893" fill="#1F2328" font-size="12" font-family="Helvetica"> </text><text x="453.284" y="792.893" fill="#1F2328" font-size="12" textLength="23.766" font-family="Helvetica">0.1)</text><rect x="305.372" y="825.723" width="140.768" height="33.969" fill="#F6F8FA" style="stroke:#57606A;stroke-width:0.5;" rx="6" ry="6"/><text x="315.372" y="846.861" fill="#1F2328" font-size="12" textLength="44.197" font-family="Helvetica">Answer</text><text x="359.569" y="846.861" fill="#1F2328" font-size="12" font-family="Helvetica"> </text><text x="363.383" y="846.861" fill="#1F2328" font-size="12" textLength="22.576" font-family="Helvetica">and</text><text x="385.959" y="846.861" fill="#1F2328" font-size="12" font-family="Helvetica"> </text><text x="389.774" y="846.861" fill="#1F2328" font-size="12" textLength="46.365" font-family="Helvetica">sources</text><polygon points="256.707,865.691,268.707,877.691,256.707,889.691,244.707,877.691,256.707,865.691" fill="#FFF" style="stroke:#57606A;stroke-width:0.5;stroke-linejoin:miter;stroke-miterlimit:10;"/><rect x="154.598" y="909.691" width="204.219" height="47.938" fill="#F6F8FA" style="stroke:#57606A;stroke-width:0.5;" rx="6" ry="6"/><text x="164.598" y="930.83" fill="#1F2328" font-size="12" textLength="80.18" font-family="Helvetica">question_log:</text><text x="244.777" y="930.83" fill="#1F2328" font-size="12" font-family="Helvetica"> </text><text x="248.592" y="930.83" fill="#1F2328" font-size="12" textLength="47.156" font-family="Helvetica">answer,</text><text x="295.748" y="930.83" fill="#1F2328" font-size="12" font-family="Helvetica"> </text><text x="299.563" y="930.83" fill="#1F2328" font-size="12" textLength="49.254" font-family="Helvetica">context,</text><text x="164.598" y="944.799" fill="#1F2328" font-size="12" textLength="50.18" font-family="Helvetica">sources,</text><text x="214.777" y="944.799" fill="#1F2328" font-size="12" font-family="Helvetica"> </text><text x="218.592" y="944.799" fill="#1F2328" font-size="12" textLength="36.721" font-family="Helvetica">config</text><path d="M287.707,968.496 L287.707,984.629 L267.707,988.629 L287.707,992.629 L287.707,1008.762 A0,0 0 0 0 287.707,1008.762 L473.137,1008.762 A0,0 0 0 0 473.137,1008.762 L473.137,978.496 L463.137,968.496 L287.707,968.496 A0,0 0 0 0 287.707,968.496" style="stroke:#AFB8C1;stroke-width:0.5;" fill="#FFF"/><path d="M463.137,968.496 L463.137,978.496 L473.137,978.496 L463.137,968.496" style="stroke:#AFB8C1;stroke-width:0.5;" fill="#FFF"/><text x="293.707" y="985.563" fill="#57606A" font-size="13" textLength="24.178" font-family="Helvetica">The</text><text x="317.885" y="985.563" fill="#57606A" font-size="13" font-family="Helvetica"> </text><text x="322.018" y="985.563" fill="#57606A" font-size="13" textLength="54.45" font-family="Helvetica">baseline</text><text x="376.468" y="985.563" fill="#57606A" font-size="13" font-family="Helvetica"> </text><text x="380.6" y="985.563" fill="#57606A" font-size="13" textLength="21.334" font-family="Helvetica">the</text><text x="401.935" y="985.563" fill="#57606A" font-size="13" font-family="Helvetica"> </text><text x="406.067" y="985.563" fill="#57606A" font-size="13" textLength="37.553" font-family="Helvetica">agent</text><text x="443.62" y="985.563" fill="#57606A" font-size="13" font-family="Helvetica"> </text><text x="447.752" y="985.563" fill="#57606A" font-size="13" textLength="10.385" font-family="Helvetica">is</text><text x="293.707" y="1000.696" fill="#57606A" font-size="13" textLength="65.235" font-family="Helvetica">measured</text><text x="358.942" y="1000.696" fill="#57606A" font-size="13" font-family="Helvetica"> </text><text x="363.074" y="1000.696" fill="#57606A" font-size="13" textLength="52.038" font-family="Helvetica">against.</text><ellipse cx="256.707" cy="988.629" rx="11" ry="11" fill="none" style="stroke:#222;stroke-width:1;"/><ellipse cx="256.707" cy="988.629" rx="6" ry="6" fill="#222" style="stroke:#222;stroke-width:1;"/><line x1="256.707" y1="73.461" x2="256.707" y2="93.461" style="stroke:#57606A;stroke-width:1.5;"/><polygon points="252.707,83.461,256.707,93.461,260.707,83.461,256.707,87.461" fill="#57606A" style="stroke:#57606A;stroke-width:1;stroke-linejoin:miter;stroke-miterlimit:10;"/><line x1="256.707" y1="127.43" x2="256.707" y2="147.43" style="stroke:#57606A;stroke-width:1.5;"/><polygon points="252.707,137.43,256.707,147.43,260.707,137.43,256.707,141.43" fill="#57606A" style="stroke:#57606A;stroke-width:1;stroke-linejoin:miter;stroke-miterlimit:10;"/><line x1="135.222" y1="233.695" x2="135.222" y2="253.695" style="stroke:#57606A;stroke-width:1.5;"/><polygon points="131.222,243.695,135.222,253.695,139.222,243.695,135.222,247.695" fill="#57606A" style="stroke:#57606A;stroke-width:1;stroke-linejoin:miter;stroke-miterlimit:10;"/><line x1="365.929" y1="233.695" x2="365.929" y2="253.695" style="stroke:#57606A;stroke-width:1.5;"/><polygon points="361.929,243.695,365.929,253.695,369.929,243.695,365.929,247.695" fill="#57606A" style="stroke:#57606A;stroke-width:1;stroke-linejoin:miter;stroke-miterlimit:10;"/><line x1="135.222" y1="301.633" x2="135.222" y2="321.633" style="stroke:#57606A;stroke-width:1.5;"/><polygon points="131.222,311.633,135.222,321.633,139.222,311.633,135.222,315.633" fill="#57606A" style="stroke:#57606A;stroke-width:1;stroke-linejoin:miter;stroke-miterlimit:10;"/><line x1="365.929" y1="301.633" x2="365.929" y2="321.633" style="stroke:#57606A;stroke-width:1.5;"/><polygon points="361.929,311.633,365.929,321.633,369.929,311.633,365.929,315.633" fill="#57606A" style="stroke:#57606A;stroke-width:1;stroke-linejoin:miter;stroke-miterlimit:10;"/><line x1="256.707" y1="327.633" x2="256.707" y2="347.633" style="stroke:#57606A;stroke-width:1.5;"/><polygon points="252.707,337.633,256.707,347.633,260.707,337.633,256.707,341.633" fill="#57606A" style="stroke:#57606A;stroke-width:1;stroke-linejoin:miter;stroke-miterlimit:10;"/><line x1="256.707" y1="181.398" x2="256.707" y2="227.695" style="stroke:#57606A;stroke-width:1.5;"/><polygon points="252.707,217.695,256.707,227.695,260.707,217.695,256.707,221.695" fill="#57606A" style="stroke:#57606A;stroke-width:1;stroke-linejoin:miter;stroke-miterlimit:10;"/><line x1="256.707" y1="395.57" x2="256.707" y2="427.57" style="stroke:#57606A;stroke-width:1.5;"/><polygon points="252.707,417.57,256.707,427.57,260.707,417.57,256.707,421.57" fill="#57606A" style="stroke:#57606A;stroke-width:1;stroke-linejoin:miter;stroke-miterlimit:10;"/><line x1="375.755" y1="553.508" x2="375.755" y2="577.91" style="stroke:#57606A;stroke-width:1.5;"/><polygon points="371.755,567.91,375.755,577.91,379.755,567.91,375.755,571.91" fill="#57606A" style="stroke:#57606A;stroke-width:1;stroke-linejoin:miter;stroke-miterlimit:10;"/><line x1="432.505" y1="541.508" x2="481.355" y2="541.508" style="stroke:#57606A;stroke-width:1.5;"/><polygon points="477.355,598.863,481.355,608.863,485.355,598.863,481.355,602.863" fill="#57606A" style="stroke:#57606A;stroke-width:1.5;stroke-linejoin:miter;stroke-miterlimit:10;"/><line x1="481.355" y1="541.508" x2="481.355" y2="671.816" style="stroke:#57606A;stroke-width:1.5;"/><line x1="481.355" y1="671.816" x2="387.755" y2="671.816" style="stroke:#57606A;stroke-width:1.5;"/><polygon points="397.755,667.816,387.755,671.816,397.755,675.816,393.755,671.816" fill="#57606A" style="stroke:#57606A;stroke-width:1;stroke-linejoin:miter;stroke-miterlimit:10;"/><line x1="375.755" y1="639.816" x2="375.755" y2="659.816" style="stroke:#57606A;stroke-width:1.5;"/><polygon points="371.755,649.816,375.755,659.816,379.755,649.816,375.755,653.816" fill="#57606A" style="stroke:#57606A;stroke-width:1;stroke-linejoin:miter;stroke-miterlimit:10;"/><line x1="375.755" y1="683.816" x2="375.755" y2="703.816" style="stroke:#57606A;stroke-width:1.5;"/><polygon points="371.755,693.816,375.755,703.816,379.755,693.816,375.755,697.816" fill="#57606A" style="stroke:#57606A;stroke-width:1;stroke-linejoin:miter;stroke-miterlimit:10;"/><line x1="375.755" y1="751.754" x2="375.755" y2="771.754" style="stroke:#57606A;stroke-width:1.5;"/><polygon points="371.755,761.754,375.755,771.754,379.755,761.754,375.755,765.754" fill="#57606A" style="stroke:#57606A;stroke-width:1;stroke-linejoin:miter;stroke-miterlimit:10;"/><line x1="375.755" y1="805.723" x2="375.755" y2="825.723" style="stroke:#57606A;stroke-width:1.5;"/><polygon points="371.755,815.723,375.755,825.723,379.755,815.723,375.755,819.723" fill="#57606A" style="stroke:#57606A;stroke-width:1;stroke-linejoin:miter;stroke-miterlimit:10;"/><line x1="206.186" y1="507.508" x2="137.659" y2="507.508" style="stroke:#57606A;stroke-width:1.5;"/><line x1="137.659" y1="507.508" x2="137.659" y2="529.508" style="stroke:#57606A;stroke-width:1.5;"/><polygon points="133.659,519.508,137.659,529.508,141.659,519.508,137.659,523.508" fill="#57606A" style="stroke:#57606A;stroke-width:1;stroke-linejoin:miter;stroke-miterlimit:10;"/><line x1="307.229" y1="507.508" x2="375.755" y2="507.508" style="stroke:#57606A;stroke-width:1.5;"/><line x1="375.755" y1="507.508" x2="375.755" y2="529.508" style="stroke:#57606A;stroke-width:1.5;"/><polygon points="371.755,519.508,375.755,529.508,379.755,519.508,375.755,523.508" fill="#57606A" style="stroke:#57606A;stroke-width:1;stroke-linejoin:miter;stroke-miterlimit:10;"/><line x1="137.659" y1="577.445" x2="137.659" y2="877.691" style="stroke:#57606A;stroke-width:1.5;"/><line x1="137.659" y1="877.691" x2="244.707" y2="877.691" style="stroke:#57606A;stroke-width:1.5;"/><polygon points="234.707,873.691,244.707,877.691,234.707,881.691,238.707,877.691" fill="#57606A" style="stroke:#57606A;stroke-width:1;stroke-linejoin:miter;stroke-miterlimit:10;"/><line x1="375.755" y1="859.691" x2="375.755" y2="877.691" style="stroke:#57606A;stroke-width:1.5;"/><line x1="375.755" y1="877.691" x2="268.707" y2="877.691" style="stroke:#57606A;stroke-width:1.5;"/><polygon points="278.707,873.691,268.707,877.691,278.707,881.691,274.707,877.691" fill="#57606A" style="stroke:#57606A;stroke-width:1;stroke-linejoin:miter;stroke-miterlimit:10;"/><line x1="256.707" y1="475.508" x2="256.707" y2="495.508" style="stroke:#57606A;stroke-width:1.5;"/><polygon points="252.707,485.508,256.707,495.508,260.707,485.508,256.707,489.508" fill="#57606A" style="stroke:#57606A;stroke-width:1;stroke-linejoin:miter;stroke-miterlimit:10;"/><line x1="256.707" y1="889.691" x2="256.707" y2="909.691" style="stroke:#57606A;stroke-width:1.5;"/><polygon points="252.707,899.691,256.707,909.691,260.707,899.691,256.707,903.691" fill="#57606A" style="stroke:#57606A;stroke-width:1;stroke-linejoin:miter;stroke-miterlimit:10;"/><line x1="256.707" y1="957.629" x2="256.707" y2="977.629" style="stroke:#57606A;stroke-width:1.5;"/><polygon points="252.707,967.629,256.707,977.629,260.707,967.629,256.707,971.629" fill="#57606A" style="stroke:#57606A;stroke-width:1;stroke-linejoin:miter;stroke-miterlimit:10;"/><?plantuml-src HPDRRzD048NVzrSCuIKHphK88QSgAcq33wL06ud7QkqTswkiPyrU4Yp4VsVMRk39oVhCcM_FZ5zfAarK23xq1XSwjaO47Gp2awQQ7xwn8GU7mMay8bWgCOCQ2PqCvxza8LXhl13-eAcJJhPmShBxeLLeOBDPyOiWNH3vjwzFUrWUrykoaM7vCw8Fsj9Mv7TjWGf2Wy27heTfKUEylSXWlTgyLREj46pBOAo6oUU-S5gTeQJ9c8E1lz-FnHFuBG0gwmxy0CYFM0Rhu6P_bp5dDt-0eeVIUasO3Og6_0ba6DexzDOScKLX5vhjYn78MceQxGxOdwnJezzk_mGTEZ2IwYZh5yC1upcTfLPLf780JsK-MIAfCr_--BY35XsNmdevVRU2D-0a7MRCgj53uUm1ATbejHL_XCXlDOV9kJCkmpRMg6mWbmMJnv0Ib4Q77cgU40UdAvXAwi7PamU3LVWmItg2ATbP8fWyMBwsuIGfWB9bR962Py18QZ5XnJL1mmdxmB8g-XGuZ_p-_WkKqfWjN5w-tgrsjxlhgok1nYDCU_J9EhLscAx3LvQ5GVMlDokobDpSHG9xHCSJnTcOy8spti-HIgiusj4WWxGHus-kEcxITWpopOenI6d5r_NCVoAUSXeq78Qi1o2oOqWAAnbDc8r3q5Mw_yUepRXxfQM0ltZVooRImGFRWhVHSTYjTDntc5x-wRp-KsDaAoyMw_nzmVxOTh1Qh6U3w9gNYkd_Mt3js5BavyL_DhREMPAKsRbxTjOF9vMkj_prs4u8ijpIwRe9xBzdt49wDBp5u_ZvemoWFI-JzD7n1WyxwyCYjOLK_1S0?></g></svg>