<svg xmlns="http://www.w3.org/2000/svg" xmlns:xlink="http://www.w3.org/1999/xlink" version="1.1" data-diagram-type="ACTIVITY" style="width:947px;height:1492px;background:#FFFFFF;" width="947px" height="1492px" viewBox="0 0 947 1492" zoomAndPan="magnify" preserveAspectRatio="none" contentStyleType="text/css"><?plantuml 1.2026.8?><defs/><g font-family="sans-serif" lengthAdjust="spacing"><g class="title" data-source-line="1"><text x="330.437" y="32.995" fill="#000" font-size="14" textLength="284.3" font-weight="700">scripts/up.sh: bringing the stand up</text></g><ellipse cx="471.587" cy="62.297" rx="10" ry="10" fill="#222" style="stroke:#222;stroke-width:1;"/><rect x="365.098" y="140.699" width="212.979" height="47.938" fill="#FFF3CD" style="stroke:#181818;stroke-width:0.5;" rx="12.5" ry="12.5"/><text x="375.098" y="161.838" fill="#000" font-size="12" textLength="22.072">Say</text><text x="397.17" y="161.838" fill="#000" font-size="12"> </text><text x="400.985" y="161.838" fill="#000" font-size="12" textLength="28.336">why,</text><text x="429.321" y="161.838" fill="#000" font-size="12"> </text><text x="433.135" y="161.838" fill="#000" font-size="12" textLength="22.576">and</text><text x="455.711" y="161.838" fill="#000" font-size="12"> </text><text x="459.526" y="161.838" fill="#000" font-size="12" textLength="28.107">offer</text><text x="487.633" y="161.838" fill="#000" font-size="12"> </text><text x="491.448" y="161.838" fill="#000" font-size="12" textLength="76.629">scripts/up.sh</text><text x="375.098" y="175.807" fill="#000" font-size="12" textLength="30.48">--cpu</text><ellipse cx="471.587" cy="221.168" rx="11" ry="11" fill="none" style="stroke:#222;stroke-width:1;"/><ellipse cx="471.587" cy="221.168" rx="6" ry="6" fill="#222" style="stroke:#222;stroke-width:1;"/><polygon points="375.372,92.297,567.802,92.297,579.802,104.297,567.802,116.297,375.372,116.297,363.372,104.297,375.372,92.297" fill="#F1F1F1" style="stroke:#181818;stroke-width:0.5;stroke-linejoin:miter;stroke-miterlimit:10;"/><text x="475.587" y="126.507" fill="#000" font-size="11" textLength="13.702">no</text><text x="375.372" y="108.105" fill="#000" font-size="11" textLength="38.908">Docker</text><text x="414.28" y="108.105" fill="#000" font-size="11"> </text><text x="417.777" y="108.105" fill="#000" font-size="11" textLength="24.997">sees</text><text x="442.774" y="108.105" fill="#000" font-size="11"> </text><text x="446.271" y="108.105" fill="#000" font-size="11" textLength="18.052">the</text><text x="464.323" y="108.105" fill="#000" font-size="11"> </text><text x="467.819" y="108.105" fill="#000" font-size="11" textLength="24.293">card</text><text x="492.113" y="108.105" fill="#000" font-size="11"> </text><text x="495.609" y="108.105" fill="#000" font-size="11" textLength="43.463">through</text><text x="539.072" y="108.105" fill="#000" font-size="11"> </text><text x="542.569" y="108.105" fill="#000" font-size="11" textLength="25.233">CDI?</text><text x="579.802" y="101.703" fill="#000" font-size="11" textLength="19.008">yes</text><rect x="374.435" y="274.168" width="194.305" height="47.938" fill="#F1F1F1" style="stroke:#181818;stroke-width:0.5;" rx="12.5" ry="12.5"/><text x="384.435" y="295.307" fill="#000" font-size="12" textLength="30.691">Read</text><text x="415.126" y="295.307" fill="#000" font-size="12"> </text><text x="418.941" y="295.307" fill="#000" font-size="12" textLength="19.693">the</text><text x="438.634" y="295.307" fill="#000" font-size="12"> </text><text x="442.448" y="295.307" fill="#000" font-size="12" textLength="43.107">judge's</text><text x="485.556" y="295.307" fill="#000" font-size="12"> </text><text x="489.37" y="295.307" fill="#000" font-size="12" textLength="37.365">model</text><text x="526.736" y="295.307" fill="#000" font-size="12"> </text><text x="530.55" y="295.307" fill="#000" font-size="12" textLength="28.189">from</text><text x="384.435" y="309.275" fill="#000" font-size="12" textLength="70.014">config.yaml</text><rect x="362.036" y="390.508" width="219.102" height="47.938" fill="#F1F1F1" style="stroke:#181818;stroke-width:0.5;" rx="12.5" ry="12.5"/><text x="372.036" y="411.646" fill="#000" font-size="12" textLength="42.035">Unload</text><text x="414.072" y="411.646" fill="#000" font-size="12"> </text><text x="417.886" y="411.646" fill="#000" font-size="12" textLength="49.957">ollama's</text><text x="467.843" y="411.646" fill="#000" font-size="12"> </text><text x="471.657" y="411.646" fill="#000" font-size="12" textLength="47.432">models,</text><text x="519.089" y="411.646" fill="#000" font-size="12"> </text><text x="522.904" y="411.646" fill="#000" font-size="12" textLength="13.594">so</text><text x="536.497" y="411.646" fill="#000" font-size="12"> </text><text x="540.312" y="411.646" fill="#000" font-size="12" textLength="30.826">vLLM</text><text x="372.036" y="425.615" fill="#000" font-size="12" textLength="29.033">finds</text><text x="401.07" y="425.615" fill="#000" font-size="12"> </text><text x="404.884" y="425.615" fill="#000" font-size="12" textLength="19.693">the</text><text x="424.577" y="425.615" fill="#000" font-size="12"> </text><text x="428.392" y="425.615" fill="#000" font-size="12" textLength="26.502">card</text><text x="454.894" y="425.615" fill="#000" font-size="12"> </text><text x="458.708" y="425.615" fill="#000" font-size="12" textLength="23.924">free</text><polygon points="378.307,342.105,564.867,342.105,576.867,354.105,564.867,366.105,378.307,366.105,366.307,354.105,378.307,342.105" fill="#F1F1F1" style="stroke:#181818;stroke-width:0.5;stroke-linejoin:miter;stroke-miterlimit:10;"/><text x="475.587" y="376.316" fill="#000" font-size="11" textLength="19.008">yes</text><text x="378.307" y="357.914" fill="#000" font-size="11" textLength="49.704">compose</text><text x="428.011" y="357.914" fill="#000" font-size="11"> </text><text x="431.508" y="357.914" fill="#000" font-size="11" textLength="18.165">will</text><text x="449.673" y="357.914" fill="#000" font-size="11"> </text><text x="453.17" y="357.914" fill="#000" font-size="11" textLength="35.159">create</text><text x="488.329" y="357.914" fill="#000" font-size="11"> </text><text x="491.825" y="357.914" fill="#000" font-size="11" textLength="11.252">or</text><text x="503.078" y="357.914" fill="#000" font-size="11"> </text><text x="506.574" y="357.914" fill="#000" font-size="11" textLength="25.62">start</text><text x="532.195" y="357.914" fill="#000" font-size="11"> </text><text x="535.691" y="357.914" fill="#000" font-size="11" textLength="29.176">vllm?</text><text x="576.867" y="351.511" fill="#000" font-size="11" textLength="17.408">no:</text><text x="594.275" y="351.511" fill="#000" font-size="11"> </text><text x="597.771" y="351.511" fill="#000" font-size="11">a</text><text x="604.512" y="351.511" fill="#000" font-size="11"> </text><text x="608.009" y="351.511" fill="#000" font-size="11" textLength="30.975">warm</text><text x="638.984" y="351.511" fill="#000" font-size="11"> </text><text x="642.48" y="351.511" fill="#000" font-size="11" textLength="30.739">stand</text><polygon points="471.587,458.445,483.587,470.445,471.587,482.445,459.587,470.445,471.587,458.445" fill="#F1F1F1" style="stroke:#181818;stroke-width:0.5;stroke-linejoin:miter;stroke-miterlimit:10;"/><rect x="394.758" y="502.445" width="153.658" height="33.969" fill="#F1F1F1" style="stroke:#181818;stroke-width:0.5;" rx="12.5" ry="12.5"/><text x="404.758" y="523.584" fill="#000" font-size="12" textLength="40.822">docker</text><text x="445.58" y="523.584" fill="#000" font-size="12"> </text><text x="449.395" y="523.584" fill="#000" font-size="12" textLength="54.223">compose</text><text x="503.617" y="523.584" fill="#000" font-size="12"> </text><text x="507.432" y="523.584" fill="#000" font-size="12" textLength="15.223">up</text><text x="522.655" y="523.584" fill="#000" font-size="12"> </text><text x="526.469" y="523.584" fill="#000" font-size="12" textLength="11.947">-d</text><rect x="50.635" y="556.414" width="841.904" height="6" fill="#555" style="stroke:#555;stroke-width:1;" rx="2.5" ry="2.5"/><rect x="118.899" y="582.414" width="83.053" height="33.969" fill="#F1F1F1" style="stroke:#181818;stroke-width:0.5;" rx="12.5" ry="12.5"/><text x="128.899" y="603.553" fill="#000" font-size="12" textLength="63.053">postgresql</text><rect x="91.231" y="636.383" width="138.389" height="33.969" fill="#F1F1F1" style="stroke:#181818;stroke-width:0.5;" rx="12.5" ry="12.5"/><text x="101.231" y="657.521" fill="#000" font-size="12" textLength="50.408">dbmate:</text><text x="151.639" y="657.521" fill="#000" font-size="12"> </text><text x="155.453" y="657.521" fill="#000" font-size="12" textLength="64.166">migrations</text><rect x="64.635" y="705.352" width="191.58" height="75.875" fill="#F1F1F1" style="stroke:#181818;stroke-width:0.5;" rx="12.5" ry="12.5"/><text x="74.635" y="726.49" fill="#000" font-size="12" textLength="32.678">seed:</text><text x="107.313" y="726.49" fill="#000" font-size="12"> </text><text x="111.127" y="726.49" fill="#000" font-size="12" textLength="50.994">engines,</text><text x="162.121" y="726.49" fill="#000" font-size="12"> </text><text x="165.936" y="726.49" fill="#000" font-size="12" textLength="53.971">prompts,</text><text x="219.906" y="726.49" fill="#000" font-size="12"> </text><text x="223.721" y="726.49" fill="#000" font-size="12" textLength="19.693">the</text><text x="74.635" y="740.459" fill="#000" font-size="12" textLength="51.844">question</text><text x="126.479" y="740.459" fill="#000" font-size="12"> </text><text x="130.293" y="740.459" fill="#000" font-size="12" textLength="33.34">bank,</text><text x="74.635" y="754.428" fill="#000" font-size="12" textLength="25.969">MCP</text><text x="100.604" y="754.428" fill="#000" font-size="12"> </text><text x="104.418" y="754.428" fill="#000" font-size="12" textLength="75.984">integrations,</text><text x="180.403" y="754.428" fill="#000" font-size="12"> </text><text x="184.217" y="754.428" fill="#000" font-size="12" textLength="19.693">the</text><text x="203.91" y="754.428" fill="#000" font-size="12"> </text><text x="207.725" y="754.428" fill="#000" font-size="12" textLength="38.49">code's</text><text x="74.635" y="768.396" fill="#000" font-size="12" textLength="46.365">sources</text><rect x="284.215" y="657.336" width="60.406" height="33.969" fill="#F1F1F1" style="stroke:#181818;stroke-width:0.5;" rx="12.5" ry="12.5"/><text x="294.215" y="678.475" fill="#000" font-size="12" textLength="40.406">ollama</text><rect x="372.621" y="657.336" width="86.557" height="33.969" fill="#F1F1F1" style="stroke:#181818;stroke-width:0.5;" rx="12.5" ry="12.5"/><text x="382.621" y="678.475" fill="#000" font-size="12" textLength="66.557">ollama-cpu</text><path d="M670.182,654.188 L670.182,670.32 L650.182,674.32 L670.182,678.32 L670.182,694.453 A0,0 0 0 0 670.182,694.453 L878.539,694.453 A0,0 0 0 0 878.539,694.453 L878.539,664.188 L868.539,654.188 L670.182,654.188 A0,0 0 0 0 670.182,654.188" style="stroke:#181818;stroke-width:0.5;" fill="#FEFFDD"/><path d="M868.539,654.188 L868.539,664.188 L878.539,664.188 L868.539,654.188" style="stroke:#181818;stroke-width:0.5;" fill="#FEFFDD"/><text x="676.182" y="671.254" fill="#000" font-size="13" textLength="24.178">The</text><text x="700.36" y="671.254" fill="#000" font-size="13"> </text><text x="704.492" y="671.254" fill="#000" font-size="13" textLength="25.403">first</text><text x="729.896" y="671.254" fill="#000" font-size="13"> </text><text x="734.028" y="671.254" fill="#000" font-size="13" textLength="30.278">start</text><text x="764.306" y="671.254" fill="#000" font-size="13"> </text><text x="768.439" y="671.254" fill="#000" font-size="13" textLength="69.634">downloads</text><text x="838.073" y="671.254" fill="#000" font-size="13"> </text><text x="842.205" y="671.254" fill="#000" font-size="13" textLength="21.334">the</text><text x="676.182" y="686.387" fill="#000" font-size="13" textLength="54.736">weights.</text><rect x="487.178" y="657.336" width="163.004" height="33.969" fill="#F1F1F1" style="stroke:#181818;stroke-width:0.5;" rx="12.5" ry="12.5"/><text x="497.178" y="678.475" fill="#000" font-size="12" textLength="25.459">vllm</text><text x="522.637" y="678.475" fill="#000" font-size="12"> </text><text x="526.451" y="678.475" fill="#000" font-size="12" textLength="32.643">takes</text><text x="559.094" y="678.475" fill="#000" font-size="12"> </text><text x="562.908" y="678.475" fill="#000" font-size="12" textLength="19.693">the</text><text x="582.602" y="678.475" fill="#000" font-size="12"> </text><text x="586.416" y="678.475" fill="#000" font-size="12" textLength="26.502">card</text><text x="612.918" y="678.475" fill="#000" font-size="12"> </text><text x="616.733" y="678.475" fill="#000" font-size="12" textLength="23.449">first</text><rect x="50.635" y="801.227" width="841.904" height="6" fill="#555" style="stroke:#555;stroke-width:1;" rx="2.5" ry="2.5"/><rect x="297.173" y="818.028" width="348.829" height="423.859" fill="none" style="stroke:#000;stroke-width:1.5;"/><path d="M636.002,818.028 L636.002,827.325 L626.002,837.325 L297.173,837.325" style="stroke:#000;stroke-width:1.5;" fill="none"/><text x="300.173" y="832.023" fill="#000" font-size="14" textLength="328.829">bootstrap, once every service above is healthy</text><rect x="353.514" y="854.325" width="236.146" height="47.938" fill="#F1F1F1" style="stroke:#181818;stroke-width:0.5;" rx="12.5" ry="12.5"/><text x="363.514" y="875.464" fill="#000" font-size="12" textLength="25.459">vllm</text><text x="388.973" y="875.464" fill="#000" font-size="12"> </text><text x="392.787" y="875.464" fill="#000" font-size="12" textLength="19.928">put</text><text x="412.715" y="875.464" fill="#000" font-size="12"> </text><text x="416.53" y="875.464" fill="#000" font-size="12" textLength="12.047">to</text><text x="428.576" y="875.464" fill="#000" font-size="12"> </text><text x="432.391" y="875.464" fill="#000" font-size="12" textLength="35.783">sleep,</text><text x="468.174" y="875.464" fill="#000" font-size="12"> </text><text x="471.989" y="875.464" fill="#000" font-size="12" textLength="38.432">unless</text><text x="510.42" y="875.464" fill="#000" font-size="12"> </text><text x="514.235" y="875.464" fill="#000" font-size="12">a</text><text x="521.588" y="875.464" fill="#000" font-size="12"> </text><text x="525.403" y="875.464" fill="#000" font-size="12" textLength="18.293">job</text><text x="543.696" y="875.464" fill="#000" font-size="12"> </text><text x="547.51" y="875.464" fill="#000" font-size="12" textLength="32.15">holds</text><text x="363.514" y="889.433" fill="#000" font-size="12" textLength="19.693">the</text><text x="383.207" y="889.433" fill="#000" font-size="12"> </text><text x="387.022" y="889.433" fill="#000" font-size="12" textLength="26.502">card</text><rect x="353.441" y="922.263" width="236.293" height="61.906" fill="#F1F1F1" style="stroke:#181818;stroke-width:0.5;" rx="12.5" ry="12.5"/><text x="363.441" y="943.401" fill="#000" font-size="12" textLength="37.365">model</text><text x="400.806" y="943.401" fill="#000" font-size="12"> </text><text x="404.62" y="943.401" fill="#000" font-size="12" textLength="28.342">rows</text><text x="432.962" y="943.401" fill="#000" font-size="12"> </text><text x="436.777" y="943.401" fill="#000" font-size="12" textLength="28.189">from</text><text x="464.966" y="943.401" fill="#000" font-size="12"> </text><text x="468.781" y="943.401" fill="#000" font-size="12" textLength="40.535">config,</text><text x="509.316" y="943.401" fill="#000" font-size="12"> </text><text x="513.13" y="943.401" fill="#000" font-size="12" textLength="29.244">roles</text><text x="363.441" y="957.37" fill="#000" font-size="12" textLength="44.508">seated,</text><text x="363.441" y="971.339" fill="#000" font-size="12" textLength="30.826">vLLM</text><text x="394.267" y="971.339" fill="#000" font-size="12"> </text><text x="398.081" y="971.339" fill="#000" font-size="12" textLength="28.342">rows</text><text x="426.423" y="971.339" fill="#000" font-size="12"> </text><text x="430.238" y="971.339" fill="#000" font-size="12" textLength="29.227">filled</text><text x="459.464" y="971.339" fill="#000" font-size="12"> </text><text x="463.279" y="971.339" fill="#000" font-size="12" textLength="28.189">from</text><text x="491.468" y="971.339" fill="#000" font-size="12"> </text><text x="495.282" y="971.339" fill="#000" font-size="12" textLength="29.479">what</text><text x="524.761" y="971.339" fill="#000" font-size="12"> </text><text x="528.575" y="971.339" fill="#000" font-size="12" textLength="8.039">it</text><text x="536.615" y="971.339" fill="#000" font-size="12"> </text><text x="540.429" y="971.339" fill="#000" font-size="12" textLength="39.305">serves</text><rect x="355.269" y="1004.169" width="232.637" height="61.906" fill="#F1F1F1" style="stroke:#181818;stroke-width:0.5;" rx="12.5" ry="12.5"/><text x="365.269" y="1025.308" fill="#000" font-size="12" textLength="40.406">ollama</text><text x="405.675" y="1025.308" fill="#000" font-size="12"> </text><text x="409.49" y="1025.308" fill="#000" font-size="12" textLength="66.17">reconciled:</text><text x="475.659" y="1025.308" fill="#000" font-size="12"> </text><text x="479.474" y="1025.308" fill="#000" font-size="12">a</text><text x="486.827" y="1025.308" fill="#000" font-size="12"> </text><text x="490.642" y="1025.308" fill="#000" font-size="12" textLength="46.084">missing</text><text x="536.726" y="1025.308" fill="#000" font-size="12"> </text><text x="540.54" y="1025.308" fill="#000" font-size="12" textLength="37.365">model</text><text x="365.269" y="1039.276" fill="#000" font-size="12" textLength="43.846">queues</text><text x="409.115" y="1039.276" fill="#000" font-size="12"> </text><text x="412.929" y="1039.276" fill="#000" font-size="12">a</text><text x="420.282" y="1039.276" fill="#000" font-size="12"> </text><text x="424.097" y="1039.276" fill="#000" font-size="12" textLength="25.705">pull,</text><text x="365.269" y="1053.245" fill="#000" font-size="12" textLength="19.693">the</text><text x="384.962" y="1053.245" fill="#000" font-size="12"> </text><text x="388.777" y="1053.245" fill="#000" font-size="12" textLength="58.342">repetition</text><text x="447.118" y="1053.245" fill="#000" font-size="12"> </text><text x="450.933" y="1053.245" fill="#000" font-size="12" textLength="45.1">penalty</text><text x="496.032" y="1053.245" fill="#000" font-size="12"> </text><text x="499.847" y="1053.245" fill="#000" font-size="12" textLength="9.586">is</text><text x="509.433" y="1053.245" fill="#000" font-size="12"> </text><text x="513.247" y="1053.245" fill="#000" font-size="12" textLength="42.48">written</text><text x="555.728" y="1053.245" fill="#000" font-size="12"> </text><text x="559.542" y="1053.245" fill="#000" font-size="12" textLength="10.939">in</text><rect x="358.093" y="1086.075" width="226.988" height="89.844" fill="#F1F1F1" style="stroke:#181818;stroke-width:0.5;" rx="12.5" ry="12.5"/><text x="368.093" y="1107.214" fill="#000" font-size="12">a</text><text x="375.447" y="1107.214" fill="#000" font-size="12"> </text><text x="379.261" y="1107.214" fill="#000" font-size="12" textLength="40.348">corpus</text><text x="419.609" y="1107.214" fill="#000" font-size="12"> </text><text x="423.423" y="1107.214" fill="#000" font-size="12" textLength="48.041">indexed</text><text x="471.464" y="1107.214" fill="#000" font-size="12"> </text><text x="475.279" y="1107.214" fill="#000" font-size="12" textLength="25.383">only</text><text x="500.661" y="1107.214" fill="#000" font-size="12"> </text><text x="504.476" y="1107.214" fill="#000" font-size="12" textLength="7.559">if</text><text x="512.034" y="1107.214" fill="#000" font-size="12"> </text><text x="515.849" y="1107.214" fill="#000" font-size="12" textLength="19.693">the</text><text x="368.093" y="1121.183" fill="#000" font-size="12" textLength="55.635">database</text><text x="423.728" y="1121.183" fill="#000" font-size="12"> </text><text x="427.542" y="1121.183" fill="#000" font-size="12" textLength="32.15">holds</text><text x="459.693" y="1121.183" fill="#000" font-size="12"> </text><text x="463.507" y="1121.183" fill="#000" font-size="12" textLength="29.936">none</text><text x="368.093" y="1135.151" fill="#000" font-size="12" textLength="19.641">(an</text><text x="387.734" y="1135.151" fill="#000" font-size="12"> </text><text x="391.548" y="1135.151" fill="#000" font-size="12" textLength="38.496">empty</text><text x="430.044" y="1135.151" fill="#000" font-size="12"> </text><text x="433.859" y="1135.151" fill="#000" font-size="12" textLength="42.387">variant</text><text x="476.245" y="1135.151" fill="#000" font-size="12"> </text><text x="480.06" y="1135.151" fill="#000" font-size="12" textLength="39.586">beside</text><text x="519.646" y="1135.151" fill="#000" font-size="12"> </text><text x="523.46" y="1135.151" fill="#000" font-size="12" textLength="38.221">others</text><text x="561.681" y="1135.151" fill="#000" font-size="12"> </text><text x="565.495" y="1135.151" fill="#000" font-size="12" textLength="9.586">is</text><text x="368.093" y="1149.12" fill="#000" font-size="12" textLength="25.383">only</text><text x="393.476" y="1149.12" fill="#000" font-size="12"> </text><text x="397.29" y="1149.12" fill="#000" font-size="12" textLength="49.406">logged),</text><text x="368.093" y="1163.089" fill="#000" font-size="12" textLength="46.084">missing</text><text x="414.177" y="1163.089" fill="#000" font-size="12"> </text><text x="417.991" y="1163.089" fill="#000" font-size="12" textLength="38.063">vector</text><text x="456.054" y="1163.089" fill="#000" font-size="12"> </text><text x="459.868" y="1163.089" fill="#000" font-size="12" textLength="46.676">indexes</text><text x="506.544" y="1163.089" fill="#000" font-size="12"> </text><text x="510.359" y="1163.089" fill="#000" font-size="12" textLength="26.596">built</text><rect x="357.041" y="1195.919" width="229.092" height="33.969" fill="#F1F1F1" style="stroke:#181818;stroke-width:0.5;" rx="12.5" ry="12.5"/><text x="367.041" y="1217.058" fill="#000" font-size="12" textLength="58.096">questions</text><text x="425.137" y="1217.058" fill="#000" font-size="12"> </text><text x="428.951" y="1217.058" fill="#000" font-size="12" textLength="45.111">without</text><text x="474.063" y="1217.058" fill="#000" font-size="12"> </text><text x="477.877" y="1217.058" fill="#000" font-size="12">a</text><text x="485.231" y="1217.058" fill="#000" font-size="12"> </text><text x="489.045" y="1217.058" fill="#000" font-size="12" textLength="38.063">vector</text><text x="527.108" y="1217.058" fill="#000" font-size="12"> </text><text x="530.922" y="1217.058" fill="#000" font-size="12" textLength="45.211">queued</text><rect x="16" y="1261.888" width="911.174" height="6" fill="#555" style="stroke:#555;stroke-width:1;" rx="2.5" ry="2.5"/><rect x="28" y="1329.356" width="112.889" height="33.969" fill="#F1F1F1" style="stroke:#181818;stroke-width:0.5;" rx="12.5" ry="12.5"/><text x="38" y="1350.495" fill="#000" font-size="12" textLength="46.582">rag-lab:</text><text x="84.582" y="1350.495" fill="#000" font-size="12"> </text><text x="88.396" y="1350.495" fill="#000" font-size="12" textLength="19.693">the</text><text x="108.09" y="1350.495" fill="#000" font-size="12"> </text><text x="111.904" y="1350.495" fill="#000" font-size="12" textLength="18.984">API</text><rect x="168.889" y="1287.888" width="222.822" height="47.938" fill="#F1F1F1" style="stroke:#181818;stroke-width:0.5;" rx="12.5" ry="12.5"/><text x="178.889" y="1309.026" fill="#000" font-size="12" textLength="74.936">repos-owner</text><text x="253.824" y="1309.026" fill="#000" font-size="12"> </text><text x="257.639" y="1309.026" fill="#000" font-size="12" textLength="36.434">hands</text><text x="294.072" y="1309.026" fill="#000" font-size="12"> </text><text x="297.887" y="1309.026" fill="#000" font-size="12" textLength="19.693">the</text><text x="317.58" y="1309.026" fill="#000" font-size="12"> </text><text x="321.395" y="1309.026" fill="#000" font-size="12" textLength="44.455">volume</text><text x="365.85" y="1309.026" fill="#000" font-size="12"> </text><text x="369.664" y="1309.026" fill="#000" font-size="12" textLength="12.047">to</text><text x="178.889" y="1322.995" fill="#000" font-size="12" textLength="19.693">the</text><text x="198.582" y="1322.995" fill="#000" font-size="12"> </text><text x="202.396" y="1322.995" fill="#000" font-size="12" textLength="35.455">host's</text><text x="237.852" y="1322.995" fill="#000" font-size="12"> </text><text x="241.666" y="1322.995" fill="#000" font-size="12" textLength="26.174">user</text><rect x="204.089" y="1370.825" width="152.422" height="33.969" fill="#F1F1F1" style="stroke:#181818;stroke-width:0.5;" rx="12.5" ry="12.5"/><text x="214.089" y="1391.964" fill="#000" font-size="12" textLength="45.398">worker:</text><text x="259.487" y="1391.964" fill="#000" font-size="12"> </text><text x="263.302" y="1391.964" fill="#000" font-size="12" textLength="19.693">the</text><text x="282.995" y="1391.964" fill="#000" font-size="12"> </text><text x="286.81" y="1391.964" fill="#000" font-size="12" textLength="18.293">job</text><text x="305.103" y="1391.964" fill="#000" font-size="12"> </text><text x="308.917" y="1391.964" fill="#000" font-size="12" textLength="37.594">queue</text><path d="M676.139,1295.942 L676.139,1342.341 L656.139,1346.341 L676.139,1350.341 L676.139,1396.739 A0,0 0 0 0 676.139,1396.739 L915.174,1396.739 A0,0 0 0 0 915.174,1396.739 L915.174,1305.942 L905.174,1295.942 L676.139,1295.942 A0,0 0 0 0 676.139,1295.942" style="stroke:#181818;stroke-width:0.5;" fill="#FEFFDD"/><path d="M905.174,1295.942 L905.174,1305.942 L915.174,1305.942 L905.174,1295.942" style="stroke:#181818;stroke-width:0.5;" fill="#FEFFDD"/><text x="682.139" y="1313.009" fill="#000" font-size="13">A</text><text x="691.032" y="1313.009" fill="#000" font-size="13"> </text><text x="695.164" y="1313.009" fill="#000" font-size="13" textLength="62.816">converter</text><text x="757.98" y="1313.009" fill="#000" font-size="13"> </text><text x="762.113" y="1313.009" fill="#000" font-size="13" textLength="53.727">answers</text><text x="815.839" y="1313.009" fill="#000" font-size="13"> </text><text x="819.972" y="1313.009" fill="#000" font-size="13" textLength="45.532">/health</text><text x="865.503" y="1313.009" fill="#000" font-size="13"> </text><text x="869.636" y="1313.009" fill="#000" font-size="13" textLength="30.539">from</text><text x="682.139" y="1328.142" fill="#000" font-size="13" textLength="15.482">its</text><text x="697.621" y="1328.142" fill="#000" font-size="13"> </text><text x="701.753" y="1328.142" fill="#000" font-size="13" textLength="67.983">supervisor</text><text x="682.139" y="1343.275" fill="#000" font-size="13" textLength="27.581">with</text><text x="709.719" y="1343.275" fill="#000" font-size="13"> </text><text x="713.852" y="1343.275" fill="#000" font-size="13" textLength="21.334">the</text><text x="735.186" y="1343.275" fill="#000" font-size="13"> </text><text x="739.318" y="1343.275" fill="#000" font-size="13" textLength="24.616">tool</text><text x="763.935" y="1343.275" fill="#000" font-size="13"> </text><text x="768.067" y="1343.275" fill="#000" font-size="13" textLength="21.29">not</text><text x="789.357" y="1343.275" fill="#000" font-size="13"> </text><text x="793.489" y="1343.275" fill="#000" font-size="13" textLength="54.545">running:</text><text x="848.035" y="1343.275" fill="#000" font-size="13"> </text><text x="852.167" y="1343.275" fill="#000" font-size="13" textLength="21.334">the</text><text x="682.139" y="1358.408" fill="#000" font-size="13" textLength="24.616">tool</text><text x="706.755" y="1358.408" fill="#000" font-size="13"> </text><text x="710.887" y="1358.408" fill="#000" font-size="13" textLength="37.051">starts</text><text x="747.938" y="1358.408" fill="#000" font-size="13"> </text><text x="752.071" y="1358.408" fill="#000" font-size="13" textLength="27.498">only</text><text x="682.139" y="1373.541" fill="#000" font-size="13" textLength="35.109">when</text><text x="717.248" y="1373.541" fill="#000" font-size="13"> </text><text x="721.38" y="1373.541" fill="#000" font-size="13">a</text><text x="729.346" y="1373.541" fill="#000" font-size="13"> </text><text x="733.479" y="1373.541" fill="#000" font-size="13" textLength="19.817">job</text><text x="753.296" y="1373.541" fill="#000" font-size="13"> </text><text x="757.428" y="1373.541" fill="#000" font-size="13" textLength="35.363">takes</text><text x="792.791" y="1373.541" fill="#000" font-size="13"> </text><text x="796.923" y="1373.541" fill="#000" font-size="13" textLength="21.334">the</text><text x="818.258" y="1373.541" fill="#000" font-size="13"> </text><text x="822.39" y="1373.541" fill="#000" font-size="13" textLength="32.843">card,</text><text x="855.233" y="1373.541" fill="#000" font-size="13"> </text><text x="859.365" y="1373.541" fill="#000" font-size="13" textLength="14.727">so</text><text x="682.139" y="1388.673" fill="#000" font-size="13" textLength="48.845">healthy</text><text x="730.984" y="1388.673" fill="#000" font-size="13"> </text><text x="735.116" y="1388.673" fill="#000" font-size="13" textLength="10.385">is</text><text x="745.501" y="1388.673" fill="#000" font-size="13"> </text><text x="749.633" y="1388.673" fill="#000" font-size="13" textLength="21.29">not</text><text x="770.923" y="1388.673" fill="#000" font-size="13"> </text><text x="775.056" y="1388.673" fill="#000" font-size="13" textLength="32.233">held.</text><rect x="419.711" y="1308.403" width="236.428" height="75.875" fill="#F1F1F1" style="stroke:#181818;stroke-width:0.5;" rx="12.5" ry="12.5"/><text x="429.711" y="1329.542" fill="#000" font-size="12" textLength="14.719">by</text><text x="444.43" y="1329.542" fill="#000" font-size="12"> </text><text x="448.244" y="1329.542" fill="#000" font-size="12" textLength="42.211">profile:</text><text x="490.455" y="1329.542" fill="#000" font-size="12"> </text><text x="494.27" y="1329.542" fill="#000" font-size="12" textLength="75.293">vllm-embed,</text><text x="569.563" y="1329.542" fill="#000" font-size="12"> </text><text x="573.377" y="1329.542" fill="#000" font-size="12" textLength="72.762">vllm-rerank,</text><text x="429.711" y="1343.511" fill="#000" font-size="12" textLength="55.424">vllm-cpu,</text><text x="429.711" y="1357.479" fill="#000" font-size="12" textLength="105.762">converter-docling</text><text x="535.473" y="1357.479" fill="#000" font-size="12"> </text><text x="539.287" y="1357.479" fill="#000" font-size="12" textLength="22.576">and</text><text x="429.711" y="1371.448" fill="#000" font-size="12" textLength="104.865">converter-mineru</text><text x="534.576" y="1371.448" fill="#000" font-size="12"> </text><text x="538.391" y="1371.448" fill="#000" font-size="12" textLength="55.031">(convert)</text><rect x="16" y="1424.794" width="911.174" height="6" fill="#555" style="stroke:#555;stroke-width:1;" rx="2.5" ry="2.5"/><ellipse cx="471.587" cy="1461.794" rx="11" ry="11" fill="none" style="stroke:#222;stroke-width:1;"/><ellipse cx="471.587" cy="1461.794" rx="6" ry="6" fill="#222" style="stroke:#222;stroke-width:1;"/><line x1="471.587" y1="188.637" x2="471.587" y2="210.168" style="stroke:#181818;stroke-width:1;"/><polygon points="467.587,200.168,471.587,210.168,475.587,200.168,471.587,204.168" fill="#181818" style="stroke:#181818;stroke-width:1;stroke-linejoin:miter;stroke-miterlimit:10;"/><line x1="471.587" y1="116.297" x2="471.587" y2="140.699" style="stroke:#181818;stroke-width:1;"/><polygon points="467.587,130.699,471.587,140.699,475.587,130.699,471.587,134.699" fill="#181818" style="stroke:#181818;stroke-width:1;stroke-linejoin:miter;stroke-miterlimit:10;"/><line x1="579.802" y1="104.297" x2="591.802" y2="104.297" style="stroke:#181818;stroke-width:1;"/><polygon points="587.802,180.168,591.802,190.168,595.802,180.168,591.802,184.168" fill="#181818" style="stroke:#181818;stroke-width:1;stroke-linejoin:miter;stroke-miterlimit:10;"/><line x1="591.802" y1="104.297" x2="591.802" y2="254.168" style="stroke:#181818;stroke-width:1;"/><line x1="591.802" y1="254.168" x2="471.587" y2="254.168" style="stroke:#181818;stroke-width:1;"/><line x1="471.587" y1="254.168" x2="471.587" y2="274.168" style="stroke:#181818;stroke-width:1;"/><polygon points="467.587,264.168,471.587,274.168,475.587,264.168,471.587,268.168" fill="#181818" style="stroke:#181818;stroke-width:1;stroke-linejoin:miter;stroke-miterlimit:10;"/><line x1="471.587" y1="72.297" x2="471.587" y2="92.297" style="stroke:#181818;stroke-width:1;"/><polygon points="467.587,82.297,471.587,92.297,475.587,82.297,471.587,86.297" fill="#181818" style="stroke:#181818;stroke-width:1;stroke-linejoin:miter;stroke-miterlimit:10;"/><line x1="471.587" y1="366.105" x2="471.587" y2="390.508" style="stroke:#181818;stroke-width:1;"/><polygon points="467.587,380.508,471.587,390.508,475.587,380.508,471.587,384.508" fill="#181818" style="stroke:#181818;stroke-width:1;stroke-linejoin:miter;stroke-miterlimit:10;"/><line x1="576.867" y1="354.105" x2="591.138" y2="354.105" style="stroke:#181818;stroke-width:1;"/><polygon points="587.138,404.477,591.138,414.477,595.138,404.477,591.138,408.477" fill="#181818" style="stroke:#181818;stroke-width:1;stroke-linejoin:miter;stroke-miterlimit:10;"/><line x1="591.138" y1="354.105" x2="591.138" y2="470.445" style="stroke:#181818;stroke-width:1;"/><line x1="591.138" y1="470.445" x2="483.587" y2="470.445" style="stroke:#181818;stroke-width:1;"/><polygon points="493.587,466.445,483.587,470.445,493.587,474.445,489.587,470.445" fill="#181818" style="stroke:#181818;stroke-width:1;stroke-linejoin:miter;stroke-miterlimit:10;"/><line x1="471.587" y1="438.445" x2="471.587" y2="458.445" style="stroke:#181818;stroke-width:1;"/><polygon points="467.587,448.445,471.587,458.445,475.587,448.445,471.587,452.445" fill="#181818" style="stroke:#181818;stroke-width:1;stroke-linejoin:miter;stroke-miterlimit:10;"/><line x1="471.587" y1="322.105" x2="471.587" y2="342.105" style="stroke:#181818;stroke-width:1;"/><polygon points="467.587,332.105,471.587,342.105,475.587,332.105,471.587,336.105" fill="#181818" style="stroke:#181818;stroke-width:1;stroke-linejoin:miter;stroke-miterlimit:10;"/><line x1="471.587" y1="482.445" x2="471.587" y2="502.445" style="stroke:#181818;stroke-width:1;"/><polygon points="467.587,492.445,471.587,502.445,475.587,492.445,471.587,496.445" fill="#181818" style="stroke:#181818;stroke-width:1;stroke-linejoin:miter;stroke-miterlimit:10;"/><line x1="160.425" y1="616.383" x2="160.425" y2="636.383" style="stroke:#181818;stroke-width:1;"/><polygon points="156.425,626.383,160.425,636.383,164.425,626.383,160.425,630.383" fill="#181818" style="stroke:#181818;stroke-width:1;stroke-linejoin:miter;stroke-miterlimit:10;"/><line x1="160.425" y1="670.352" x2="160.425" y2="705.352" style="stroke:#181818;stroke-width:1;"/><polygon points="156.425,695.352,160.425,705.352,164.425,695.352,160.425,699.352" fill="#181818" style="stroke:#181818;stroke-width:1;stroke-linejoin:miter;stroke-miterlimit:10;"/><line x1="160.425" y1="562.414" x2="160.425" y2="582.414" style="stroke:#181818;stroke-width:1;"/><polygon points="156.425,572.414,160.425,582.414,164.425,572.414,160.425,576.414" fill="#181818" style="stroke:#181818;stroke-width:1;stroke-linejoin:miter;stroke-miterlimit:10;"/><line x1="314.418" y1="562.414" x2="314.418" y2="657.336" style="stroke:#181818;stroke-width:1;"/><polygon points="310.418,647.336,314.418,657.336,318.418,647.336,314.418,651.336" fill="#181818" style="stroke:#181818;stroke-width:1;stroke-linejoin:miter;stroke-miterlimit:10;"/><line x1="415.9" y1="562.414" x2="415.9" y2="657.336" style="stroke:#181818;stroke-width:1;"/><polygon points="411.9,647.336,415.9,657.336,419.9,647.336,415.9,651.336" fill="#181818" style="stroke:#181818;stroke-width:1;stroke-linejoin:miter;stroke-miterlimit:10;"/><line x1="568.68" y1="562.414" x2="568.68" y2="657.336" style="stroke:#181818;stroke-width:1;"/><polygon points="564.68,647.336,568.68,657.336,572.68,647.336,568.68,651.336" fill="#181818" style="stroke:#181818;stroke-width:1;stroke-linejoin:miter;stroke-miterlimit:10;"/><line x1="160.425" y1="781.227" x2="160.425" y2="801.227" style="stroke:#181818;stroke-width:1;"/><polygon points="156.425,791.227,160.425,801.227,164.425,791.227,160.425,795.227" fill="#181818" style="stroke:#181818;stroke-width:1;stroke-linejoin:miter;stroke-miterlimit:10;"/><line x1="314.418" y1="691.305" x2="314.418" y2="801.227" style="stroke:#181818;stroke-width:1;"/><polygon points="310.418,791.227,314.418,801.227,318.418,791.227,314.418,795.227" fill="#181818" style="stroke:#181818;stroke-width:1;stroke-linejoin:miter;stroke-miterlimit:10;"/><line x1="415.9" y1="691.305" x2="415.9" y2="801.227" style="stroke:#181818;stroke-width:1;"/><polygon points="411.9,791.227,415.9,801.227,419.9,791.227,415.9,795.227" fill="#181818" style="stroke:#181818;stroke-width:1;stroke-linejoin:miter;stroke-miterlimit:10;"/><line x1="568.68" y1="691.305" x2="568.68" y2="801.227" style="stroke:#181818;stroke-width:1;"/><polygon points="564.68,791.227,568.68,801.227,572.68,791.227,568.68,795.227" fill="#181818" style="stroke:#181818;stroke-width:1;stroke-linejoin:miter;stroke-miterlimit:10;"/><line x1="471.587" y1="536.414" x2="471.587" y2="556.414" style="stroke:#181818;stroke-width:1;"/><polygon points="467.587,546.414,471.587,556.414,475.587,546.414,471.587,550.414" fill="#181818" style="stroke:#181818;stroke-width:1;stroke-linejoin:miter;stroke-miterlimit:10;"/><line x1="471.587" y1="902.263" x2="471.587" y2="922.263" style="stroke:#181818;stroke-width:1;"/><polygon points="467.587,912.263,471.587,922.263,475.587,912.263,471.587,916.263" fill="#181818" style="stroke:#181818;stroke-width:1;stroke-linejoin:miter;stroke-miterlimit:10;"/><line x1="471.587" y1="984.169" x2="471.587" y2="1004.169" style="stroke:#181818;stroke-width:1;"/><polygon points="467.587,994.169,471.587,1004.169,475.587,994.169,471.587,998.169" fill="#181818" style="stroke:#181818;stroke-width:1;stroke-linejoin:miter;stroke-miterlimit:10;"/><line x1="471.587" y1="1066.075" x2="471.587" y2="1086.075" style="stroke:#181818;stroke-width:1;"/><polygon points="467.587,1076.075,471.587,1086.075,475.587,1076.075,471.587,1080.075" fill="#181818" style="stroke:#181818;stroke-width:1;stroke-linejoin:miter;stroke-miterlimit:10;"/><line x1="471.587" y1="1175.919" x2="471.587" y2="1195.919" style="stroke:#181818;stroke-width:1;"/><polygon points="467.587,1185.919,471.587,1195.919,475.587,1185.919,471.587,1189.919" fill="#181818" style="stroke:#181818;stroke-width:1;stroke-linejoin:miter;stroke-miterlimit:10;"/><line x1="471.587" y1="807.227" x2="471.587" y2="854.325" style="stroke:#181818;stroke-width:1;"/><polygon points="467.587,844.325,471.587,854.325,475.587,844.325,471.587,848.325" fill="#181818" style="stroke:#181818;stroke-width:1;stroke-linejoin:miter;stroke-miterlimit:10;"/><line x1="280.3" y1="1335.825" x2="280.3" y2="1370.825" style="stroke:#181818;stroke-width:1;"/><polygon points="276.3,1360.825,280.3,1370.825,284.3,1360.825,280.3,1364.825" fill="#181818" style="stroke:#181818;stroke-width:1;stroke-linejoin:miter;stroke-miterlimit:10;"/><line x1="84.444" y1="1267.888" x2="84.444" y2="1329.356" style="stroke:#181818;stroke-width:1;"/><polygon points="80.444,1319.356,84.444,1329.356,88.444,1319.356,84.444,1323.356" fill="#181818" style="stroke:#181818;stroke-width:1;stroke-linejoin:miter;stroke-miterlimit:10;"/><line x1="280.3" y1="1267.888" x2="280.3" y2="1287.888" style="stroke:#181818;stroke-width:1;"/><polygon points="276.3,1277.888,280.3,1287.888,284.3,1277.888,280.3,1281.888" fill="#181818" style="stroke:#181818;stroke-width:1;stroke-linejoin:miter;stroke-miterlimit:10;"/><line x1="537.925" y1="1267.888" x2="537.925" y2="1308.403" style="stroke:#181818;stroke-width:1;"/><polygon points="533.925,1298.403,537.925,1308.403,541.925,1298.403,537.925,1302.403" fill="#181818" style="stroke:#181818;stroke-width:1;stroke-linejoin:miter;stroke-miterlimit:10;"/><line x1="84.444" y1="1363.325" x2="84.444" y2="1424.794" style="stroke:#181818;stroke-width:1;"/><polygon points="80.444,1414.794,84.444,1424.794,88.444,1414.794,84.444,1418.794" fill="#181818" style="stroke:#181818;stroke-width:1;stroke-linejoin:miter;stroke-miterlimit:10;"/><line x1="280.3" y1="1404.794" x2="280.3" y2="1424.794" style="stroke:#181818;stroke-width:1;"/><polygon points="276.3,1414.794,280.3,1424.794,284.3,1414.794,280.3,1418.794" fill="#181818" style="stroke:#181818;stroke-width:1;stroke-linejoin:miter;stroke-miterlimit:10;"/><line x1="537.925" y1="1384.278" x2="537.925" y2="1424.794" style="stroke:#181818;stroke-width:1;"/><polygon points="533.925,1414.794,537.925,1424.794,541.925,1414.794,537.925,1418.794" fill="#181818" style="stroke:#181818;stroke-width:1;stroke-linejoin:miter;stroke-miterlimit:10;"/><line x1="471.587" y1="1229.888" x2="471.587" y2="1261.888" style="stroke:#181818;stroke-width:1;"/><polygon points="467.587,1251.888,471.587,1261.888,475.587,1251.888,471.587,1255.888" fill="#181818" style="stroke:#181818;stroke-width:1;stroke-linejoin:miter;stroke-miterlimit:10;"/><line x1="471.587" y1="1430.794" x2="471.587" y2="1450.794" style="stroke:#181818;stroke-width:1;"/><polygon points="467.587,1440.794,471.587,1450.794,475.587,1440.794,471.587,1444.794" fill="#181818" style="stroke:#181818;stroke-width:1;stroke-linejoin:miter;stroke-miterlimit:10;"/><?plantuml-src RLHDhzis4BphLopIGvy1-wL8RtAG8aWk0H8WQ5hqJ8ahYJ75LKZAgX7qltUMVCvpNWBuO5BxCJipo-ooPqfzT4jEpzVbFaqjTT654J_A4xvb4oojIzEaamkBYMQcBPhb7sVpH2zU_8OFsSJSk87ktaf_uaY9EPNataIBFr7MSQ8tRz_ziTFhG7T1TWrH-ybSQ9ikUz8UCWoQUuk53eT-MO_qykKlmp3ytjjNhv2MiYmD-yHqT-6qQpXODpHD-oSRMzf-Nkt8loQQnRAd8SfClOJ1ZVSNC_jZWThBl0XARCvxwYERp2IHoYnqzdx-XhNq0DY_WnSq4E_DRAxLqvwIqFdz-myqk61lnXuYy_41Pf2M36qcpfNFA-RMLiAkODQ53lROD8F4axR4PHuZfoy0ZQFjPi1iQNPZDDb9IEKQTDkMM3LZu5amBnZS5oXVLauQIPq9fttpuSr7SY7pDRy6zPW40oLPOy-egUt9ZCO5BLy7_lbjaUV95oMFiZdTUc1mCMK56mGyHpTE6GUYln1GlZqGRsKhBDVKZJKmtICKV9LS9OuAFGsyc5sPxLadabE6A_SaeMVYCySBR1ZF3YVJoPd99PhO-3nTdj7NRpYNDLCMIfuPoMlmd1Aa-YmTJU9lz2nCLqD5sTAjg_QuGHxwGHsxHs3nGms3lTZMw6qocLmkkBXALrcaoAZKEwyw6iYRagvVxGO5eI6kbzLxBQw88Y_yCFp20LDTTBujkfnXMHTASGDySLaJpfR_1Ge97d53gM1DDfs1v-gOGG8Zvyu4OhZdGcSJdGcPEaxEOZMG4vCsAKMyZ2FRdSAveZrpdx50jLUYRdM-ADvUBGXyBay2miqrkCm6Qlzxj7mquy6RhYqWNtzyzzHTc5pI0JR1sapckd5dyUlCggIU9gmD_Bo2w89WGmMEjQGgMze-BTnTT7EW5nPChN7WkOEQzN_agFjJ3_3yle5WC5dcUC0EUoL0tx37sndB65TzPyhDxjXyP_tNZw58J9kI-xpwivh5PHXgNTJ2II8obBmoGHRnkWiKrn3Gk7syBKjK9T8CVRwgbxzVn_9cFIo3Igh59lRsllbnpVIn_Hy0?></g></svg>